<svg width="130" height="73" viewBox="0 0 130 73" fill="none" xmlns="http://www.w3.org/2000/svg">
<path d="M1 0.25H129C129.414 0.25 129.75 0.585788 129.75 1V72C129.75 72.4142 129.414 72.75 129 72.75H1C0.585789 72.75 0.25 72.4142 0.25 72V1C0.25 0.585787 0.585787 0.25 1 0.25Z" fill="#9083F7" stroke="#E3DFFF" stroke-width="0.5"/>
<g filter="url(#filter0_d_820_4676)">
<path fill-rule="evenodd" clip-rule="evenodd" d="M63.4565 8.81255C64.6329 7.7604 66.3947 7.7604 67.5711 8.81255L82.3995 22.0748C83.0741 22.6782 83.4573 23.5459 83.4573 24.4537V42.9585C83.4573 44.6929 82.0776 46.1265 80.3421 46.1265H71.8688C70.1333 46.1265 68.7536 44.6929 68.7536 42.9585V34.2974C68.7536 33.6401 68.2365 33.1349 67.6321 33.1349H63.3955C62.7911 33.1349 62.274 33.6401 62.274 34.2974V42.9585C62.274 44.6929 60.8943 46.1265 59.1588 46.1265H50.6855C48.95 46.1265 47.5703 44.6929 47.5703 42.9585V24.4537C47.5703 23.5459 47.9535 22.6782 48.6282 22.0748L63.4565 8.81255ZM66.2463 10.3112C65.8254 9.93474 65.2022 9.93474 64.7813 10.3112L49.953 23.5735C49.7082 23.7924 49.564 24.1126 49.564 24.4537V42.9585C49.564 43.6158 50.0812 44.121 50.6855 44.121H59.1588C59.7632 44.121 60.2803 43.6158 60.2803 42.9585V34.2974C60.2803 32.5631 61.66 31.1295 63.3955 31.1295H67.6321C69.3677 31.1295 70.7473 32.5631 70.7473 34.2974V42.9585C70.7473 43.6158 71.2645 44.121 71.8688 44.121H80.3421C80.9465 44.121 81.4636 43.6158 81.4636 42.9585V24.4537C81.4636 24.1126 81.3194 23.7924 81.0747 23.5735L66.2464 10.3112L66.9048 9.56632L66.2463 10.3112Z" fill="white"/>
</g>
<path d="M48.2995 64.7127H46.3635V59.2567H41.5955V64.7127H39.6595V52.8407H41.5955V57.5287H46.3635V52.8407H48.2995V64.7127ZM51.8194 58.6007C51.8194 59.2301 51.8887 59.8167 52.0274 60.3607C52.1767 60.9047 52.3901 61.3794 52.6674 61.7847C52.9447 62.1794 53.2914 62.4941 53.7074 62.7287C54.1341 62.9527 54.6301 63.0647 55.1954 63.0647C55.7501 63.0647 56.2407 62.9527 56.6674 62.7287C57.0941 62.4941 57.4461 62.1794 57.7234 61.7847C58.0114 61.3794 58.2247 60.9047 58.3634 60.3607C58.5127 59.8167 58.5874 59.2301 58.5874 58.6007C58.5874 58.0354 58.5127 57.5021 58.3634 57.0007C58.2141 56.4887 57.9954 56.0461 57.7074 55.6727C57.4194 55.2887 57.0621 54.9847 56.6354 54.7607C56.2194 54.5367 55.7394 54.4247 55.1954 54.4247C54.6514 54.4247 54.1661 54.5314 53.7394 54.7447C53.3234 54.9474 52.9714 55.2354 52.6834 55.6087C52.4061 55.9714 52.1927 56.4087 52.0434 56.9207C51.8941 57.4327 51.8194 57.9927 51.8194 58.6007ZM49.9154 58.6007C49.9154 57.7581 50.0274 56.9794 50.2514 56.2647C50.4861 55.5394 50.8274 54.9154 51.2754 54.3927C51.7234 53.8594 52.2727 53.4434 52.9234 53.1447C53.5847 52.8461 54.3421 52.6967 55.1954 52.6967C56.0381 52.6967 56.7901 52.8461 57.4514 53.1447C58.1127 53.4434 58.6674 53.8594 59.1154 54.3927C59.5634 54.9154 59.9047 55.5394 60.1394 56.2647C60.3741 56.9794 60.4914 57.7581 60.4914 58.6007C60.4914 59.5181 60.3794 60.3554 60.1554 61.1127C59.9314 61.8701 59.5954 62.5207 59.1474 63.0647C58.7101 63.6087 58.1607 64.0301 57.4994 64.3287C56.8381 64.6381 56.0701 64.7927 55.1954 64.7927C54.3314 64.7927 53.5687 64.6381 52.9074 64.3287C52.2461 64.0301 51.6914 63.6087 51.2434 63.0647C50.8061 62.5207 50.4754 61.8701 50.2514 61.1127C50.0274 60.3554 49.9154 59.5181 49.9154 58.6007ZM73.9854 64.7127H72.0494V56.7607L72.1134 54.9847L71.5534 56.7767L68.9454 64.6967H67.1374L64.3854 56.6967L63.8894 55.0327L63.9374 56.8727V64.7127H62.0014V52.8407H64.8974L67.6974 61.1447L68.0494 62.5047L68.4014 61.0967L71.0894 52.8407H73.9854V64.7127ZM83.22 64.6167H76.084V52.8407H83.076V54.5527H78.02V57.7527H82.724V59.4807H78.02V62.8887H83.22V64.6167ZM88.9207 61.8647L93.4007 59.0807L88.9207 56.2647V54.3447L95.3527 58.3127V59.8807L88.9207 63.8327V61.8647Z" fill="white"/>
<defs>
<filter id="filter0_d_820_4676" x="43.5703" y="6.02344" width="43.8906" height="46.1016" filterUnits="userSpaceOnUse" color-interpolation-filters="sRGB">
<feFlood flood-opacity="0" result="BackgroundImageFix"/>
<feColorMatrix in="SourceAlpha" type="matrix" values="0 0 0 0 0 0 0 0 0 0 0 0 0 0 0 0 0 0 127 0" result="hardAlpha"/>
<feOffset dy="2"/>
<feGaussianBlur stdDeviation="2"/>
<feComposite in2="hardAlpha" operator="out"/>
<feColorMatrix type="matrix" values="0 0 0 0 0 0 0 0 0 0 0 0 0 0 0 0 0 0 0.25 0"/>
<feBlend mode="normal" in2="BackgroundImageFix" result="effect1_dropShadow_820_4676"/>
<feBlend mode="normal" in="SourceGraphic" in2="effect1_dropShadow_820_4676" result="shape"/>
</filter>
</defs>
</svg>
