<svg width="305" height="159" viewBox="0 0 305 159" fill="none" xmlns="http://www.w3.org/2000/svg">
<path opacity="0.1" d="M56 84C79.196 84 98 80.866 98 77C98 73.134 79.196 70 56 70C32.804 70 14 73.134 14 77C14 80.866 32.804 84 56 84Z" fill="#999999"/>
<path opacity="0.1" d="M225.742 153.305C268.32 153.305 302.836 148.62 302.836 142.84C302.836 137.06 268.32 132.375 225.742 132.375C183.165 132.375 148.648 137.06 148.648 142.84C148.648 148.62 183.165 153.305 225.742 153.305Z" fill="#999999"/>
<path opacity="0.1" d="M83.5 143C96.4787 143 107 140.09 107 136.5C107 132.91 96.4787 130 83.5 130C70.5213 130 60 132.91 60 136.5C60 140.09 70.5213 143 83.5 143Z" fill="#999999"/>
<path opacity="0.2" d="M35.112 20.7373C30.3709 20.7755 24.0957 20.0004 22.8325 19.2327C21.8705 18.648 21.4872 16.55 21.3589 15.582C21.2701 15.5858 21.2188 15.5875 21.2188 15.5875C21.2188 15.5875 21.4847 18.9669 22.7479 19.7347C24.0111 20.5024 30.2863 21.2775 35.0274 21.2393C36.396 21.2283 36.8687 20.7424 36.8428 20.0228C36.6526 20.4576 36.1307 20.7291 35.112 20.7373Z" fill="black"/>
<path d="M124 133.506C148.574 139.768 195.812 125.337 201 109" stroke="#333333" stroke-width="2" stroke-miterlimit="10"/>
<path d="M82.1797 33.7048C82.1797 33.7048 117.594 23.9194 119.773 55.4501C121.952 86.9809 89.5 97.5 118.5 104" stroke="#333333" stroke-width="2" stroke-miterlimit="10"/>
<path d="M47.9609 109.345C47.9609 109.345 58.6049 106.404 59.2599 115.881C59.9149 125.358 50.4991 128.054 57.868 129.933" stroke="#333333" stroke-width="2" stroke-miterlimit="10"/>
<path d="M295.953 142.848C295.791 143.56 295.18 144.311 293.799 145.02C288.843 147.568 278.765 144.341 278.765 144.341C278.765 144.341 271 142.982 271 139.416C271.218 139.262 271.445 139.123 271.681 139C273.764 137.866 280.673 135.07 292.924 139.118C293.826 139.409 294.633 139.952 295.253 140.687C295.749 141.284 296.138 142.042 295.953 142.848Z" fill="#666666"/>
<path opacity="0.1" d="M295.952 142.848C289.886 145.238 284.478 145.416 278.929 141.454C276.13 139.456 273.588 138.962 271.68 139C273.763 137.866 280.672 135.07 292.923 139.118C293.825 139.409 294.632 139.952 295.252 140.687C295.748 141.284 296.137 142.042 295.952 142.848Z" fill="black"/>
<path d="M288.351 141.452C289.537 141.452 290.499 141.148 290.499 140.773C290.499 140.398 289.537 140.094 288.351 140.094C287.165 140.094 286.203 140.398 286.203 140.773C286.203 141.148 287.165 141.452 288.351 141.452Z" fill="#F2F2F2"/>
<path d="M209.627 116.454L207.478 130.15C207.478 130.15 196.9 135.76 204.338 135.925C211.776 136.09 246.817 135.925 246.817 135.925C246.817 135.925 253.594 135.925 242.85 129.985L240.702 115.629L209.627 116.454Z" fill="#666666"/>
<path opacity="0.1" d="M202.839 135.776C204.529 134.276 207.476 132.712 207.476 132.712L209.625 119.017L240.699 119.046L242.848 132.547C245.354 133.932 246.906 134.994 247.814 135.809C249.193 135.495 250.701 134.327 242.848 129.985L240.699 115.629L209.625 116.454L207.476 130.15C207.476 130.15 198.587 134.864 202.839 135.776Z" fill="black"/>
<path d="M290.078 21H159.922C157.204 21 155 23.2 155 25.9139V113.441C155 116.155 157.204 118.355 159.922 118.355H290.078C292.796 118.355 295 116.155 295 113.441V25.9139C295 23.2 292.796 21 290.078 21Z" fill="#666666"/>
<path d="M224.991 24.7126C225.447 24.7126 225.817 24.3432 225.817 23.8875C225.817 23.4319 225.447 23.0625 224.991 23.0625C224.534 23.0625 224.164 23.4319 224.164 23.8875C224.164 24.3432 224.534 24.7126 224.991 24.7126Z" fill="#F2F2F2"/>
<path d="M295 104.906V113.44C295 114.086 294.873 114.725 294.625 115.321C294.378 115.917 294.016 116.459 293.558 116.915C293.101 117.372 292.559 117.734 291.961 117.981C291.364 118.227 290.724 118.354 290.078 118.354H159.922C159.276 118.354 158.636 118.227 158.039 117.981C157.441 117.734 156.899 117.372 156.442 116.915C155.984 116.459 155.622 115.917 155.375 115.321C155.127 114.725 155 114.086 155 113.44V104.906H295Z" fill="#666666"/>
<path d="M224.992 114.805C226.727 114.805 228.133 113.402 228.133 111.67C228.133 109.939 226.727 108.535 224.992 108.535C223.258 108.535 221.852 109.939 221.852 111.67C221.852 113.402 223.258 114.805 224.992 114.805Z" fill="#F2F2F2"/>
<path d="M262 145.261V147H173V145.609L173.123 145.261L175.316 139H260.18L262 145.261Z" fill="#666666"/>
<path opacity="0.1" d="M262 145.262V147.001H173V145.61L173.123 145.262H262Z" fill="black"/>
<path d="M84.0845 6.52344H27.4219V72.3031H84.0845V6.52344Z" fill="#999999"/>
<path d="M88.8073 0H22.7031C22.1508 0 21.7031 0.447713 21.7031 0.999998V22.3763C21.7031 22.9285 22.1508 23.3763 22.7031 23.3763H88.8073C89.3595 23.3763 89.8073 22.9285 89.8073 22.3763V1C89.8073 0.447715 89.3595 0 88.8073 0Z" fill="#666666"/>
<path d="M88.8073 27.7266H22.7031C22.1508 27.7266 21.7031 28.1743 21.7031 28.7266V50.1028C21.7031 50.6551 22.1508 51.1028 22.7031 51.1028H88.8073C89.3595 51.1028 89.8073 50.6551 89.8073 50.1028V28.7266C89.8073 28.1743 89.3595 27.7266 88.8073 27.7266Z" fill="#666666"/>
<path d="M88.8073 55.4492H22.7031C22.1508 55.4492 21.7031 55.8969 21.7031 56.4492V77.8255C21.7031 78.3778 22.1508 78.8255 22.7031 78.8255H88.8073C89.3595 78.8255 89.8073 78.3778 89.8073 77.8255V56.4492C89.8073 55.8969 89.3595 55.4492 88.8073 55.4492Z" fill="#666666"/>
<path opacity="0.4" d="M76.1868 4.07812H71.8281V8.4272H76.1868V4.07812Z" fill="#9083F7"/>
<path opacity="0.8" d="M82.4524 4.07812H78.0938V8.4272H82.4524V4.07812Z" fill="#9083F7"/>
<path d="M88.718 4.07812H84.3594V8.4272H88.718V4.07812Z" fill="#9083F7"/>
<path opacity="0.4" d="M76.1868 31.5312H71.8281V35.8803H76.1868V31.5312Z" fill="#9083F7"/>
<path opacity="0.8" d="M82.4524 31.5312H78.0938V35.8803H82.4524V31.5312Z" fill="#9083F7"/>
<path d="M88.718 31.5312H84.3594V35.8803H88.718V31.5312Z" fill="#9083F7"/>
<path opacity="0.4" d="M76.1868 58.9844H71.8281V63.3334H76.1868V58.9844Z" fill="#9083F7"/>
<path opacity="0.8" d="M82.4524 58.9844H78.0938V63.3334H82.4524V58.9844Z" fill="#9083F7"/>
<path d="M88.718 58.9844H84.3594V63.3334H88.718V58.9844Z" fill="#9083F7"/>
<path d="M120 102.504L122.5 101.004" stroke="#E3DFFF"/>
<path d="M124.799 131.128L126.27 128.61" stroke="#E3DFFF"/>
<path d="M118.793 101.601L120.122 99.0058" stroke="#E3DFFF"/>
<path d="M123.308 130.914L123.224 128" stroke="#E3DFFF"/>
<path d="M44.8359 106.805L46.8359 107.305" stroke="#E3DFFF"/>
<path d="M43.8359 109.305L46.3359 108.305" stroke="#E3DFFF"/>
<path d="M83 130C94.598 130 104 120.598 104 109C104 97.402 94.598 88 83 88C71.402 88 62 97.402 62 109C62 120.598 71.402 130 83 130Z" fill="#9083F7"/>
<path d="M80.1616 126.492H73.7031V135.533H80.1616V126.492Z" fill="#9083F7"/>
<path d="M93.0835 126.492H86.625V135.533H93.0835V126.492Z" fill="#9083F7"/>
<path d="M78.9836 138C81.956 138 84.3657 137.08 84.3657 135.945C84.3657 134.811 81.956 133.891 78.9836 133.891C76.0112 133.891 73.6016 134.811 73.6016 135.945C73.6016 137.08 76.0112 138 78.9836 138Z" fill="#9083F7"/>
<path d="M91.8977 137.723C94.8701 137.723 97.2797 136.803 97.2797 135.668C97.2797 134.533 94.8701 133.613 91.8977 133.613C88.9252 133.613 86.5156 134.533 86.5156 135.668C86.5156 136.803 88.9252 137.723 91.8977 137.723Z" fill="#9083F7"/>
<path d="M102.309 105.27C107.647 103.004 111.381 99.7173 110.649 97.9283C109.916 96.1394 104.995 96.526 99.6575 98.7919C94.3195 101.058 90.5858 104.345 91.318 106.134C92.0502 107.923 96.9711 107.536 102.309 105.27Z" fill="#9083F7"/>
<path d="M63.3091 119.27C68.6471 117.004 72.3808 113.717 71.6486 111.928C70.9164 110.139 65.9955 110.526 60.6575 112.792C55.3195 115.058 51.5858 118.345 52.318 120.134C53.0502 121.923 57.9711 121.536 63.3091 119.27Z" fill="#9083F7"/>
<path d="M98.2895 112.398C90.3879 116.756 81.7701 114.438 77.7316 112.393C77.3961 112.223 76.9937 112.452 77.0273 112.826C77.3922 116.891 81.396 123 88.2354 123C95.4791 123 98.806 116.407 98.9917 112.791C99.0106 112.423 98.6117 112.22 98.2895 112.398Z" fill="white"/>
<path d="M87.5 111C91.6421 111 95 107.642 95 103.5C95 99.3579 91.6421 96 87.5 96C83.3579 96 80 99.3579 80 103.5C80 107.642 83.3579 111 87.5 111Z" fill="white"/>
<path d="M87.6016 108.5C90.363 108.5 92.6016 106.261 92.6016 103.5C92.6016 100.739 90.363 98.5 87.6016 98.5C84.8401 98.5 82.6016 100.739 82.6016 103.5C82.6016 106.261 84.8401 108.5 87.6016 108.5Z" fill="black"/>
<path d="M89.691 102.112C90.2279 102.112 90.6632 101.677 90.6632 101.14C90.6632 100.603 90.2279 100.168 89.691 100.168C89.154 100.168 88.7188 100.603 88.7188 101.14C88.7188 101.677 89.154 102.112 89.691 102.112Z" fill="white"/>
<path d="M61.8775 92.8608C59.094 87.0619 64.7013 80.0764 74.4019 77.2583C84.1025 74.4401 94.2229 76.8566 97.0064 82.6555C99.7899 88.4544 93.5217 91.5687 83.8212 94.3868C74.1206 97.2049 64.6611 98.6598 61.8775 92.8608Z" fill="#333333"/>
</svg>
