<svg width="40" height="40" viewBox="0 0 40 40" fill="none" xmlns="http://www.w3.org/2000/svg">
<g clip-path="url(#clip0_107_3755)">
<rect width="40" height="40" fill="#9083F7"/>
<g clip-path="url(#clip1_107_3755)">
<path d="M6.85773 18.1076L7.26378 19.346C6.75519 19.7265 6.23635 19.9751 5.70725 20.0873C5.17816 20.2017 4.64701 20.2523 4.11382 20.2435C3.42886 20.2347 2.82799 20.1005 2.31735 19.8409C1.80467 19.5814 1.37811 19.2228 1.03563 18.7653C0.693156 18.3077 0.43476 17.76 0.260446 17.1243C0.0861318 16.4886 0 15.7891 0 15.0258C0 14.3351 0.0820303 13.6884 0.248142 13.0857C0.414253 12.483 0.666496 11.955 1.01102 11.5063C1.3535 11.0575 1.78211 10.699 2.29275 10.4306C2.80338 10.1645 3.41246 10.0215 4.11382 10.0039C4.58754 9.9863 5.06127 10.0281 5.53704 10.1337C6.01077 10.2393 6.46808 10.413 6.909 10.6572L6.49064 11.9242C6.0928 11.7527 5.7052 11.6273 5.32786 11.5503C4.95053 11.4733 4.54653 11.4535 4.11587 11.4887C3.72622 11.5151 3.37554 11.6251 3.06178 11.8164C2.74801 12.0078 2.48142 12.2564 2.26198 12.5665C2.04255 12.8745 1.87234 13.2396 1.7534 13.662C1.63445 14.0843 1.57498 14.5397 1.57498 15.0302C1.57498 15.5471 1.6324 16.0311 1.74724 16.4798C1.86209 16.9285 2.0282 17.3201 2.24968 17.6522C2.46911 17.9844 2.73571 18.2484 3.04947 18.4485C3.36324 18.6487 3.71802 18.7609 4.11587 18.7895C4.56498 18.8159 4.99974 18.7785 5.42425 18.6729C5.84671 18.5695 6.32658 18.3803 6.85978 18.1076H6.85773Z" fill="white"/>
<path d="M15.051 20.2053H13.515V15.5595H9.73133V20.2053H8.19531V10.0977H9.73133V14.0879H13.515V10.0977H15.051V20.2053Z" fill="white"/>
<path d="M23.9097 20.195H22.2465L21.3708 17.1022H18.3357L17.46 20.195H15.7969L18.9304 10.0742H20.8089L23.9076 20.195H23.9097ZM18.7418 15.6328H20.9648L19.8594 11.7108L18.7418 15.6328Z" fill="#F9D9C2"/>
<path d="M31.178 18.1098L31.5841 19.3482C31.0755 19.7287 30.5567 19.9773 30.0276 20.0895C29.4985 20.2039 28.9673 20.2545 28.4341 20.2457C27.7492 20.2369 27.1483 20.1027 26.6377 19.8431C26.125 19.5836 25.6984 19.225 25.3559 18.7675C25.0135 18.3099 24.7551 17.7622 24.5808 17.1265C24.4064 16.4908 24.3203 15.7913 24.3203 15.028C24.3203 14.3373 24.4023 13.6906 24.5685 13.0879C24.7346 12.4852 24.9868 11.9572 25.3313 11.5085C25.6738 11.0597 26.1024 10.7012 26.6131 10.4328C27.1257 10.1645 27.7328 10.0215 28.4362 10.0039C28.9099 9.9863 29.3836 10.0281 29.8594 10.1337C30.3331 10.2393 30.7904 10.413 31.2314 10.6572L30.813 11.9242C30.4152 11.7527 30.0276 11.6273 29.6502 11.5503C29.2729 11.4733 28.8689 11.4535 28.4382 11.4887C28.0486 11.5151 27.6979 11.6251 27.3841 11.8164C27.0704 12.0078 26.8038 12.2564 26.5843 12.5665C26.3649 12.8745 26.1947 13.2396 26.0758 13.662C25.9568 14.0843 25.8973 14.5397 25.8973 15.0302C25.8973 15.5471 25.9548 16.0311 26.0696 16.4798C26.1844 16.9285 26.3506 17.3201 26.572 17.6522C26.7915 17.9844 27.0581 18.2483 27.3718 18.4485C27.6856 18.6487 28.0404 18.7609 28.4382 18.7895C28.8873 18.8159 29.3221 18.7785 29.7466 18.6729C30.1691 18.5695 30.6489 18.3803 31.1821 18.1076L31.178 18.1098Z" fill="white"/>
<path d="M38.3104 18.0518C38.4539 18.2343 38.5688 18.3553 38.6529 18.4191C38.7369 18.4829 38.8087 18.5379 38.8682 18.5819C38.9523 18.6369 39.0815 18.7007 39.2558 18.7732C39.4301 18.8458 39.6762 18.9448 39.9982 19.0724L39.4014 20.3944C39.1389 20.2844 38.9154 20.1943 38.7349 20.1217C38.5524 20.0491 38.3965 19.9831 38.2653 19.9237C38.134 19.8643 38.0192 19.8027 37.9228 19.7389C37.8264 19.6751 37.73 19.5981 37.6377 19.5079C37.6213 19.4904 37.5742 19.4442 37.4983 19.3716C37.4224 19.299 37.3199 19.1802 37.1927 19.0174L34.1063 15.1086V20.2031H32.5703V10.0977H34.1063V14.4157L37.3199 10.0977H39.1225L35.6567 14.7566L38.3104 18.0518Z" fill="white"/>
<path d="M6.85773 30.7113L7.26378 31.9498C6.75519 32.3303 6.23635 32.5789 5.70725 32.6911C5.17816 32.8054 4.64701 32.856 4.11382 32.8472C3.42886 32.8384 2.82799 32.7043 2.31735 32.4447C1.80467 32.1851 1.37811 31.8266 1.03563 31.369C0.693156 30.9115 0.43476 30.3638 0.260446 29.7281C0.0861318 29.0924 0 28.3929 0 27.6296C0 26.9389 0.0820303 26.2921 0.248142 25.6894C0.414253 25.0867 0.666496 24.5588 1.01102 24.11C1.3535 23.6613 1.78211 23.3028 2.29275 23.0344C2.80543 22.766 3.41246 22.6231 4.11587 22.6055C4.58959 22.5879 5.06332 22.6297 5.53909 22.7352C6.01282 22.8408 6.47014 23.0146 6.91105 23.2588L6.49269 24.5258C6.09485 24.3542 5.70725 24.2288 5.32992 24.1518C4.95258 24.0749 4.54858 24.0551 4.11792 24.0903C3.72827 24.1166 3.3776 24.2266 3.06383 24.418C2.75006 24.6094 2.48347 24.8579 2.26403 25.1681C2.0446 25.4761 1.87439 25.8412 1.75545 26.2636C1.6365 26.6859 1.57703 27.1412 1.57703 27.6318C1.57703 28.1487 1.63445 28.6326 1.74929 29.0814C1.86414 29.5301 2.03025 29.9216 2.25173 30.2538C2.47116 30.5859 2.73776 30.8499 3.05153 31.0501C3.36529 31.2503 3.72007 31.3624 4.11792 31.391C4.56703 31.4174 5.00179 31.38 5.4263 31.2745C5.84876 31.1711 6.32863 30.9819 6.86183 30.7091L6.85773 30.7113Z" fill="white"/>
<path d="M15.051 32.8107H13.515V28.165H9.73133V32.8107H8.19531V22.7031H9.73133V26.6934H13.515V22.7031H15.051V32.8107Z" fill="white"/>
<path d="M23.4732 32.7271H16.2422V22.7031H23.3604V24.1615H17.7803V26.8847H23.0815V28.3563H17.7803V31.2577H23.4752V32.7293L23.4732 32.7271Z" fill="#F9D9C2"/>
<path d="M31.178 30.7113L31.5841 31.9498C31.0755 32.3303 30.5567 32.5789 30.0276 32.6911C29.4985 32.8054 28.9673 32.856 28.4341 32.8472C27.7492 32.8384 27.1483 32.7043 26.6377 32.4447C26.125 32.1851 25.6984 31.8266 25.3559 31.369C25.0135 30.9115 24.7551 30.3638 24.5808 29.7281C24.4064 29.0924 24.3203 28.3929 24.3203 27.6296C24.3203 26.9389 24.4023 26.2921 24.5685 25.6894C24.7346 25.0867 24.9868 24.5588 25.3313 24.11C25.6738 23.6613 26.1024 23.3028 26.6131 23.0344C27.1257 22.766 27.7328 22.6231 28.4362 22.6055C28.9099 22.5879 29.3836 22.6297 29.8594 22.7352C30.3331 22.8408 30.7904 23.0146 31.2314 23.2588L30.813 24.5258C30.4152 24.3542 30.0276 24.2288 29.6502 24.1518C29.2729 24.0749 28.8689 24.0551 28.4382 24.0903C28.0486 24.1166 27.6979 24.2266 27.3841 24.418C27.0704 24.6094 26.8038 24.8579 26.5843 25.1681C26.3649 25.4761 26.1947 25.8412 26.0758 26.2636C25.9568 26.6859 25.8973 27.1412 25.8973 27.6318C25.8973 28.1487 25.9548 28.6326 26.0696 29.0814C26.1844 29.5301 26.3506 29.9216 26.572 30.2538C26.7915 30.5859 27.0581 30.8499 27.3718 31.0501C27.6856 31.2503 28.0404 31.3624 28.4382 31.391C28.8873 31.4174 29.3221 31.38 29.7466 31.2745C30.1691 31.1711 30.6489 30.9819 31.1821 30.7091L31.178 30.7113Z" fill="white"/>
<path d="M38.3104 30.6572C38.4539 30.8398 38.5688 30.9608 38.6529 31.0246C38.7369 31.0884 38.8087 31.1434 38.8682 31.1873C38.9523 31.2423 39.0815 31.3061 39.2558 31.3787C39.4301 31.4513 39.6762 31.5503 39.9982 31.6779L39.4014 32.9999C39.1389 32.8899 38.9174 32.7997 38.7349 32.7271C38.5524 32.6545 38.3965 32.5886 38.2653 32.5292C38.134 32.4698 38.0192 32.4082 37.9228 32.3444C37.8243 32.2806 37.73 32.2036 37.6377 32.1134C37.6213 32.0958 37.5742 32.0496 37.4983 31.977C37.4224 31.9044 37.3199 31.7857 37.1927 31.6229L34.1063 27.714V32.8085H32.5703V22.7031H34.1063V27.0211L37.3199 22.7031H39.1225L35.6546 27.3621L38.3083 30.6572H38.3104Z" fill="white"/>
</g>
<path fill-rule="evenodd" clip-rule="evenodd" d="M24 3.92379L18.9622 9L16 6.01518L16.8994 5.09139L18.9622 7.16992L23.1006 3L24 3.92379Z" fill="#F9D9C2"/>
</g>
<defs>
<clipPath id="clip0_107_3755">
<rect width="40" height="40" fill="white"/>
</clipPath>
<clipPath id="clip1_107_3755">
<rect width="40" height="23" fill="white" transform="translate(0 10)"/>
</clipPath>
</defs>
</svg>
