<svg width="40" height="40" viewBox="0 0 40 40" fill="none" xmlns="http://www.w3.org/2000/svg">
<g clip-path="url(#clip0_1013_4440)">
<path fill-rule="evenodd" clip-rule="evenodd" d="M31.4495 29.2227L29.7988 23.0435C29.5154 21.9828 28.4059 21.3412 27.3452 21.6245C26.2845 21.9079 25.6428 23.0174 25.9262 24.0781L26.1392 24.8754L19.933 21.2861C18.9836 20.737 17.7485 21.067 17.1994 22.0164C17.1005 22.1874 17.0402 22.3678 17.0018 22.5514C16.988 22.617 16.977 22.6831 16.9681 22.7493C16.9032 22.7319 16.8378 22.7178 16.7721 22.7069C15.9732 22.5742 15.1358 22.9202 14.7092 23.6579C14.2826 24.3955 14.4003 25.2938 14.9137 25.9201C14.9559 25.9716 15.0008 26.0213 15.0482 26.0689C14.9953 26.1097 14.9435 26.1521 14.8934 26.1968C14.7535 26.3217 14.6272 26.4638 14.5283 26.6349C13.9792 27.5843 14.3092 28.8194 15.2586 29.3685L15.9441 29.765C15.8909 29.8101 15.8394 29.8572 15.7901 29.907C15.681 30.0172 15.5829 30.1399 15.502 30.2797C14.9529 31.2291 15.2829 32.4642 16.2323 33.0133L23.1601 37.02C25.3859 38.3073 28.2512 37.5419 29.5385 35.316L31.0827 32.6459C31.7231 31.5387 31.7335 30.2927 31.4495 29.2227ZM15.6117 29.8038C15.5066 29.9147 15.4103 30.0388 15.3289 30.1796C14.7245 31.2246 15.0871 32.5821 16.1321 33.1865L23.0599 37.1931C25.3814 38.5357 28.369 37.7376 29.7116 35.4162L31.2559 32.7461C31.9298 31.5808 31.9363 30.2772 31.6428 29.1714L29.992 22.9919C29.6801 21.8245 28.461 21.1194 27.2936 21.4313C26.1262 21.7432 25.4211 22.9623 25.7329 24.1297L25.8213 24.4605L20.0331 21.113C18.9881 20.5086 17.6307 20.8712 17.0263 21.9162C16.9144 22.1097 16.8478 22.3111 16.8061 22.5098C15.9307 22.3641 15.0079 22.742 14.5361 23.5577C14.0643 24.3735 14.197 25.3618 14.7599 26.0479C14.6084 26.1832 14.467 26.3413 14.3552 26.5348C13.7508 27.5798 14.1134 28.9373 15.1584 29.5416L15.6117 29.8038ZM29.9463 29.6238C30.1583 30.424 30.145 31.2037 29.755 31.878L28.2107 34.5481C27.34 36.0537 25.4335 36.563 23.928 35.6922L17.0002 31.6856C16.7688 31.5518 16.6959 31.279 16.8297 31.0476C16.9636 30.8162 17.2363 30.7434 17.4677 30.8772L19.1996 31.8789C19.6141 32.1186 20.1444 31.9769 20.3841 31.5624C20.6238 31.148 20.4821 30.6177 20.0677 30.378L16.0265 28.0408C15.7951 27.9069 15.7222 27.6342 15.856 27.4028C15.9899 27.1714 16.2626 27.0986 16.494 27.2324L20.5352 29.5696C20.9497 29.8093 21.48 29.6676 21.7197 29.2532C21.9594 28.8387 21.8177 28.3084 21.4032 28.0687L16.2074 25.0637C15.976 24.9299 15.9032 24.6571 16.037 24.4258C16.1708 24.1944 16.4435 24.1215 16.6749 24.2553L21.8708 27.2603C22.2852 27.5 22.8155 27.3584 23.0552 26.9439C23.2949 26.5295 23.1533 25.9992 22.7388 25.7595L18.6976 23.4222C18.4662 23.2884 18.3933 23.0157 18.5272 22.7843C18.661 22.5529 18.9337 22.48 19.1651 22.6139L26.7644 27.0089C27.4364 27.3976 28.243 26.7797 28.0426 26.0296L27.8494 26.0812C28.0038 26.6591 27.3823 27.1352 26.8645 26.8357L19.2652 22.4407C18.9382 22.2516 18.5431 22.3572 18.354 22.6842C18.1649 23.0111 18.2705 23.4062 18.5975 23.5954L22.6387 25.9326C22.9575 26.117 23.0665 26.5249 22.8821 26.8438C22.6977 27.1626 22.2897 27.2716 21.9709 27.0872L16.775 24.0822C16.4481 23.8931 16.053 23.9986 15.8638 24.3256C15.6747 24.6526 15.7803 25.0477 16.1073 25.2368L21.3031 28.2418C21.622 28.4262 21.7309 28.8342 21.5465 29.1531C21.3621 29.4719 20.9542 29.5809 20.6353 29.3965L16.5941 27.0593C16.2671 26.8701 15.872 26.9757 15.6829 27.3027C15.4938 27.6297 15.5993 28.0248 15.9263 28.2139L19.9675 30.5511C20.2864 30.7355 20.3954 31.1435 20.211 31.4623C20.0266 31.7812 19.6186 31.8901 19.2998 31.7057L17.5678 30.7041C17.2408 30.515 16.8457 30.6205 16.6566 30.9475C16.4675 31.2745 16.5731 31.6696 16.9 31.8587L23.8278 35.8654C25.429 36.7914 27.4578 36.2494 28.3839 34.6483L29.9281 31.9782C30.3533 31.243 30.3599 30.4042 30.1397 29.5726L28.5174 23.3859C28.4204 23.0228 28.0506 22.8089 27.6875 22.9059C27.3245 23.0029 27.1106 23.3727 27.2075 23.7358L27.8494 26.0812L28.0426 26.0296L27.4008 23.6842C27.3327 23.428 27.483 23.1676 27.7391 23.0991C27.9954 23.0307 28.2555 23.181 28.3241 23.4372L29.9463 29.6238Z" fill="#9083F7"/>
<path d="M14.6987 23.658C15.1604 22.8597 16.1031 22.5202 16.9576 22.7495C16.9915 22.4983 17.0546 22.2488 17.1889 22.0166C17.738 21.0671 18.9731 20.7372 19.9225 21.2863L26.1287 24.8756L25.9157 24.0783C25.6323 23.0176 26.274 21.9081 27.3347 21.6247C28.3954 21.3413 29.5049 21.983 29.7883 23.0437L31.439 29.2228C31.723 30.2929 31.7126 31.5388 31.0722 32.6461L29.528 35.3162C28.2407 37.542 25.3754 38.3075 23.1496 37.0202L16.2218 33.0135C15.2724 32.4644 14.9424 31.2293 15.4915 30.2799C15.6089 30.0769 15.7626 29.91 15.9336 29.7652L15.2481 29.3687C14.2986 28.8196 13.9687 27.5845 14.5178 26.6351C14.6521 26.4028 14.8369 26.2238 15.0377 26.0691C14.4128 25.4428 14.237 24.4564 14.6987 23.658ZM15.8533 24.3258C15.6642 24.6528 15.7698 25.0479 16.0968 25.237L21.2926 28.242C21.6115 28.4264 21.7204 28.8344 21.536 29.1532C21.3516 29.4721 20.9437 29.5811 20.6248 29.3967L16.5836 27.0594C16.2566 26.8703 15.8615 26.9759 15.6724 27.3029C15.4833 27.6299 15.5888 28.0249 15.9158 28.2141L19.957 30.5513C20.2759 30.7357 20.3849 31.1437 20.2005 31.4625C20.0161 31.7813 19.6081 31.8903 19.2893 31.7059L17.5573 30.7042C17.2303 30.5151 16.8352 30.6207 16.6461 30.9477C16.457 31.2747 16.5625 31.6698 16.8895 31.8589L23.8173 35.8656C25.4185 36.7916 27.4473 36.2496 28.3734 34.6484L29.9176 31.9783C30.3428 31.2432 30.3494 30.4044 30.1292 29.5728L28.5069 23.386C28.4099 23.023 28.0401 22.8091 27.677 22.9061C27.3139 23.0031 27.1001 23.3729 27.197 23.736L27.8389 26.0814C27.9933 26.6593 27.3718 27.1354 26.854 26.8359L19.2547 22.4409C18.9277 22.2518 18.5326 22.3573 18.3435 22.6843C18.1544 23.0113 18.26 23.4064 18.587 23.5955L22.6282 25.9328C22.947 26.1172 23.056 26.5251 22.8716 26.844C22.6872 27.1628 22.2792 27.2718 21.9604 27.0874L16.7645 24.0824C16.4376 23.8933 16.0425 23.9988 15.8533 24.3258Z" fill="#9083F7"/>
<path fill-rule="evenodd" clip-rule="evenodd" d="M23.3237 4.13445C26.4206 4.94217 29.1974 6.67537 31.2834 9.10266C33.3693 11.5299 34.6652 14.5358 34.998 17.7189C35.3308 20.9021 34.6847 24.111 33.1459 26.9172C32.8803 27.4015 32.2725 27.5788 31.7882 27.3132C31.304 27.0477 31.1267 26.4399 31.3922 25.9556C32.7354 23.5062 33.2994 20.7053 33.0089 17.9269C32.7184 15.1485 31.5873 12.5249 29.7665 10.4062C27.9458 8.28755 25.5221 6.77473 22.819 6.06971C20.1159 5.3647 17.262 5.50105 14.6385 6.46055C12.0149 7.42005 9.74645 9.15705 8.13598 11.4396C6.52552 13.7222 5.64968 16.4418 5.6254 19.2352C5.60113 22.0286 6.42956 24.763 8.00011 27.0732C9.57066 29.3834 11.8086 31.1596 14.4151 32.1645C14.9304 32.3632 15.1871 32.942 14.9884 33.4573C14.7897 33.9727 14.2109 34.2293 13.6956 34.0306C10.7094 32.8793 8.14546 30.8444 6.34612 28.1976C4.54678 25.5508 3.59766 22.4182 3.62548 19.2178C3.65329 16.0175 4.65672 12.9017 6.50179 10.2866C8.34685 7.67154 10.9458 5.6815 13.9515 4.58223C16.9573 3.48295 20.2269 3.32674 23.3237 4.13445Z" fill="#9083F7"/>
<path d="M25.3594 16.3594C25.3594 18.0162 24.4639 19.3594 23.3594 19.3594C22.2548 19.3594 21.3594 18.0162 21.3594 16.3594C21.3594 14.7025 22.2548 13.3594 23.3594 13.3594C24.4639 13.3594 25.3594 14.7025 25.3594 16.3594Z" fill="#9083F7"/>
<path d="M17.3594 16.3594C17.3594 18.0162 16.4639 19.3594 15.3594 19.3594C14.2548 19.3594 13.3594 18.0162 13.3594 16.3594C13.3594 14.7025 14.2548 13.3594 15.3594 13.3594C16.4639 13.3594 17.3594 14.7025 17.3594 16.3594Z" fill="#9083F7"/>
</g>
<defs>
<clipPath id="clip0_1013_4440">
<rect width="40" height="40" fill="white"/>
</clipPath>
</defs>
</svg>
