<svg width="60" height="60" viewBox="0 0 60 60" fill="none" xmlns="http://www.w3.org/2000/svg">
<rect width="60" height="60" rx="30" fill="#9083F7"/>
<path fill-rule="evenodd" clip-rule="evenodd" d="M17 22C17 21.4477 17.4477 21 18 21H42C42.5523 21 43 21.4477 43 22C43 22.5523 42.5523 23 42 23H18C17.4477 23 17 22.5523 17 22Z" fill="white"/>
<path fill-rule="evenodd" clip-rule="evenodd" d="M17 17.875C17 16.5069 17.9226 15 19.5 15H40.5C42.0774 15 43 16.5069 43 17.875V44.125C43 45.4931 42.0774 47 40.5 47H19.5C17.9226 47 17 45.4931 17 44.125V17.875ZM19.2202 17.1739C19.1002 17.3238 19 17.5684 19 17.875V44.125C19 44.4316 19.1002 44.6762 19.2202 44.8261C19.3387 44.9742 19.444 45 19.5 45H40.5C40.556 45 40.6613 44.9742 40.7798 44.8261C40.8998 44.6762 41 44.4316 41 44.125V17.875C41 17.5684 40.8998 17.3238 40.7798 17.1739C40.6613 17.0258 40.556 17 40.5 17H19.5C19.444 17 19.3387 17.0258 19.2202 17.1739Z" fill="white"/>
<path fill-rule="evenodd" clip-rule="evenodd" d="M23 28C23 27.4477 23.4477 27 24 27H36C36.5523 27 37 27.4477 37 28C37 28.5523 36.5523 29 36 29H24C23.4477 29 23 28.5523 23 28Z" fill="white"/>
<path fill-rule="evenodd" clip-rule="evenodd" d="M23 34C23 33.4477 23.4477 33 24 33H36C36.5523 33 37 33.4477 37 34C37 34.5523 36.5523 35 36 35H24C23.4477 35 23 34.5523 23 34Z" fill="white"/>
<path fill-rule="evenodd" clip-rule="evenodd" d="M23 40C23 39.4477 23.4477 39 24 39H36C36.5523 39 37 39.4477 37 40C37 40.5523 36.5523 41 36 41H24C23.4477 41 23 40.5523 23 40Z" fill="white"/>
</svg>
