<svg width="30" height="30" viewBox="0 0 30 30" fill="none" xmlns="http://www.w3.org/2000/svg">
<rect width="30" height="30" rx="15" fill="#9083F7"/>
<path fill-rule="evenodd" clip-rule="evenodd" d="M25.6211 14.5703C25.8555 14.8046 25.8555 15.1845 25.6211 15.4188L22.6211 18.4188C22.3868 18.6531 22.0069 18.6531 21.7726 18.4188C21.5383 18.1845 21.5383 17.8046 21.7726 17.5703L24.3483 14.9945L21.7726 12.4188C21.5383 12.1845 21.5383 11.8046 21.7726 11.5703C22.0069 11.336 22.3868 11.336 22.6211 11.5703L25.6211 14.5703Z" fill="white"/>
<path fill-rule="evenodd" clip-rule="evenodd" d="M25.7969 14.9945C25.7969 15.3259 25.5282 15.5945 25.1969 15.5945L15.1969 15.5945C14.8655 15.5945 14.5969 15.3259 14.5969 14.9945C14.5969 14.6632 14.8655 14.3945 15.1969 14.3945L25.1969 14.3945C25.5282 14.3945 25.7969 14.6632 25.7969 14.9945Z" fill="white"/>
<path fill-rule="evenodd" clip-rule="evenodd" d="M17.6047 7.99844C17.6047 7.77752 17.4256 7.59844 17.2047 7.59844L8.20469 7.59844C7.98377 7.59844 7.80469 7.77752 7.80469 7.99844L7.80469 21.9984C7.80469 22.2194 7.98377 22.3984 8.20469 22.3984L17.2047 22.3984C17.4256 22.3984 17.6047 22.2193 17.6047 21.9984L17.6047 19.9984C17.6047 19.6671 17.8733 19.3984 18.2047 19.3984C18.5361 19.3984 18.8047 19.6671 18.8047 19.9984L18.8047 21.9984C18.8047 22.8821 18.0883 23.5984 17.2047 23.5984L8.20469 23.5984C7.32103 23.5984 6.60469 22.8821 6.60469 21.9984L6.60469 7.99844C6.60469 7.11478 7.32103 6.39844 8.20469 6.39844L17.2047 6.39844C18.0883 6.39844 18.8047 7.11478 18.8047 7.99844L18.8047 9.99844C18.8047 10.3298 18.5361 10.5984 18.2047 10.5984C17.8733 10.5984 17.6047 10.3298 17.6047 9.99844L17.6047 7.99844Z" fill="white"/>
</svg>
