<svg width="20" height="20" viewBox="0 0 20 20" fill="none" xmlns="http://www.w3.org/2000/svg">
<g clip-path="url(#clip0_122_3685)">
<path fill-rule="evenodd" clip-rule="evenodd" d="M10.0026 1.33203C5.21614 1.33203 1.33594 5.21223 1.33594 9.9987C1.33594 14.7852 5.21614 18.6654 10.0026 18.6654C14.7891 18.6654 18.6693 14.7852 18.6693 9.9987C18.6693 5.21223 14.7891 1.33203 10.0026 1.33203ZM0.335938 9.9987C0.335938 4.65995 4.66385 0.332031 10.0026 0.332031C15.3414 0.332031 19.6693 4.65995 19.6693 9.9987C19.6693 15.3375 15.3414 19.6654 10.0026 19.6654C4.66385 19.6654 0.335938 15.3375 0.335938 9.9987Z" fill="white"/>
<path fill-rule="evenodd" clip-rule="evenodd" d="M10 15.5C8.18284 15.5 6.5355 16.3822 5.39033 17.8125C5.21775 18.0281 4.90309 18.0629 4.68752 17.8903C4.47196 17.7177 4.43712 17.4031 4.6097 17.1875C5.92152 15.549 7.84403 14.5 10 14.5C12.156 14.5 14.0785 15.549 15.3903 17.1875C15.5629 17.4031 15.5281 17.7177 15.3125 17.8903C15.0969 18.0629 14.7823 18.0281 14.6097 17.8125C13.4645 16.3822 11.8172 15.5 10 15.5Z" fill="white"/>
<path fill-rule="evenodd" clip-rule="evenodd" d="M10.0026 6.33203C8.66792 6.33203 7.58594 7.41401 7.58594 8.7487C7.58594 10.0834 8.66792 11.1654 10.0026 11.1654C11.3373 11.1654 12.4193 10.0834 12.4193 8.7487C12.4193 7.41401 11.3373 6.33203 10.0026 6.33203ZM6.58594 8.7487C6.58594 6.86173 8.11563 5.33203 10.0026 5.33203C11.8896 5.33203 13.4193 6.86173 13.4193 8.7487C13.4193 10.6357 11.8896 12.1654 10.0026 12.1654C8.11563 12.1654 6.58594 10.6357 6.58594 8.7487Z" fill="white"/>
<path d="M6.66667 3.33333C6.66667 5.17428 5.17428 6.66667 3.33333 6.66667C1.49238 6.66667 0 5.17428 0 3.33333C0 1.49238 1.49238 0 3.33333 0C5.17428 0 6.66667 1.49238 6.66667 3.33333Z" fill="#FF4040"/>
</g>
<defs>
<clipPath id="clip0_122_3685">
<rect width="20" height="20" fill="white"/>
</clipPath>
</defs>
</svg>
