<svg width="40" height="40" viewBox="0 0 40 40" fill="none" xmlns="http://www.w3.org/2000/svg">
<path fill-rule="evenodd" clip-rule="evenodd" d="M7.49479 2.33594C8.04708 2.33594 8.49479 2.78365 8.49479 3.33594V6.5026H11.6615C12.2137 6.5026 12.6615 6.95032 12.6615 7.5026C12.6615 8.05489 12.2137 8.5026 11.6615 8.5026H8.49479V11.6693C8.49479 12.2216 8.04708 12.6693 7.49479 12.6693C6.94251 12.6693 6.49479 12.2216 6.49479 11.6693V8.5026H3.32812C2.77584 8.5026 2.32812 8.05489 2.32812 7.5026C2.32812 6.95032 2.77584 6.5026 3.32812 6.5026H6.49479V3.33594C6.49479 2.78365 6.94251 2.33594 7.49479 2.33594ZM21.6615 4.0026C22.0752 4.0026 22.4463 4.25743 22.5948 4.64362L25.4851 12.1584C25.9735 13.4283 26.1619 13.8977 26.4372 14.2849C26.6963 14.6493 27.0147 14.9677 27.3791 15.2268C27.7663 15.5022 28.2358 15.6906 29.5057 16.179L37.0204 19.0693C37.4066 19.2178 37.6615 19.5888 37.6615 20.0026C37.6615 20.4164 37.4066 20.7874 37.0204 20.936L29.5057 23.8262C28.2358 24.3147 27.7663 24.5031 27.3791 24.7784C27.0147 25.0375 26.6963 25.3559 26.4372 25.7203C26.1619 26.1075 25.9735 26.5769 25.4851 27.8468L22.5948 35.3616C22.4463 35.7478 22.0752 36.0026 21.6615 36.0026C21.2477 36.0026 20.8767 35.7478 20.7281 35.3616L17.8378 27.8468C17.3494 26.5769 17.161 26.1075 16.8857 25.7203C16.6266 25.3559 16.3082 25.0375 15.9438 24.7784C15.5566 24.5031 15.0871 24.3147 13.8173 23.8262L6.30248 20.936C5.91629 20.7874 5.66146 20.4164 5.66146 20.0026C5.66146 19.5888 5.91629 19.2178 6.30248 19.0693L13.8172 16.179C15.0871 15.6906 15.5566 15.5022 15.9438 15.2268C16.3082 14.9677 16.6266 14.6493 16.8857 14.2849C17.161 13.8977 17.3494 13.4283 17.8378 12.1584L20.7281 4.64363C20.8766 4.25743 21.2477 4.0026 21.6615 4.0026ZM21.6615 7.78828L19.7045 12.8764C19.6886 12.9178 19.6729 12.9587 19.6573 12.999C19.2328 14.1035 18.9552 14.8258 18.5157 15.4439C18.127 15.9905 17.6494 16.4681 17.1028 16.8568C16.4846 17.2963 15.7624 17.5739 14.6579 17.9985C14.6175 18.014 14.5766 18.0297 14.5352 18.0457L9.44714 20.0026L14.5352 21.9596C14.5766 21.9755 14.6175 21.9912 14.6579 22.0067C15.7624 22.4313 16.4846 22.7089 17.1028 23.1484C17.6494 23.5371 18.127 24.0147 18.5157 24.5613C18.9552 25.1795 19.2328 25.9017 19.6573 27.0062C19.6729 27.0466 19.6886 27.0874 19.7045 27.1289L21.6615 32.2169L23.6184 27.1289C23.6343 27.0874 23.6501 27.0465 23.6656 27.0062C24.0901 25.9017 24.3677 25.1795 24.8073 24.5613C25.1959 24.0147 25.6735 23.5371 26.2202 23.1484C26.8383 22.7089 27.5605 22.4313 28.665 22.0067C28.7054 21.9912 28.7463 21.9755 28.7877 21.9596L33.8758 20.0026L28.7877 18.0457C28.7463 18.0297 28.7054 18.014 28.665 17.9985C27.5605 17.5739 26.8383 17.2963 26.2202 16.8568C25.6735 16.4681 25.1959 15.9905 24.8073 15.4439C24.3677 14.8258 24.0901 14.1036 23.6656 12.9991C23.6501 12.9587 23.6343 12.9178 23.6184 12.8764L21.6615 7.78828ZM7.49479 27.3359C8.04708 27.3359 8.49479 27.7837 8.49479 28.3359V31.5026H11.6615C12.2137 31.5026 12.6615 31.9503 12.6615 32.5026C12.6615 33.0549 12.2137 33.5026 11.6615 33.5026H8.49479V36.6693C8.49479 37.2216 8.04708 37.6693 7.49479 37.6693C6.94251 37.6693 6.49479 37.2216 6.49479 36.6693V33.5026H3.32812C2.77584 33.5026 2.32812 33.0549 2.32812 32.5026C2.32812 31.9503 2.77584 31.5026 3.32812 31.5026H6.49479V28.3359C6.49479 27.7837 6.94251 27.3359 7.49479 27.3359Z" fill="#9083F7"/>
</svg>
