<svg width="60" height="60" viewBox="0 0 60 60" fill="none" xmlns="http://www.w3.org/2000/svg">
<rect width="60" height="60" rx="30" fill="#9083F7"/>
<path fill-rule="evenodd" clip-rule="evenodd" d="M17.5026 12.332C18.0549 12.332 18.5026 12.7797 18.5026 13.332V16.4987H21.6693C22.2216 16.4987 22.6693 16.9464 22.6693 17.4987C22.6693 18.051 22.2216 18.4987 21.6693 18.4987H18.5026V21.6654C18.5026 22.2177 18.0549 22.6654 17.5026 22.6654C16.9503 22.6654 16.5026 22.2177 16.5026 21.6654V18.4987H13.3359C12.7837 18.4987 12.3359 18.051 12.3359 17.4987C12.3359 16.9464 12.7837 16.4987 13.3359 16.4987H16.5026V13.332C16.5026 12.7797 16.9503 12.332 17.5026 12.332ZM31.6693 13.9987C32.083 13.9987 32.4541 14.2535 32.6026 14.6397L35.4929 22.1545C35.9813 23.4244 36.1697 23.8938 36.445 24.281C36.7042 24.6454 37.0225 24.9638 37.387 25.2229C37.7741 25.4982 38.2436 25.6866 39.5135 26.1751L47.0283 29.0654C47.4144 29.2139 47.6693 29.5849 47.6693 29.9987C47.6693 30.4125 47.4144 30.7835 47.0283 30.932L39.5135 33.8223C38.2436 34.3107 37.7741 34.4992 37.387 34.7745C37.0225 35.0336 36.7042 35.352 36.445 35.7164C36.1697 36.1036 35.9813 36.573 35.4929 37.8429L32.6026 45.3577C32.4541 45.7439 32.083 45.9987 31.6693 45.9987C31.2555 45.9987 30.8845 45.7439 30.7359 45.3577L27.8456 37.8429C27.3572 36.573 27.1688 36.1036 26.8935 35.7164C26.6344 35.352 26.316 35.0336 25.9516 34.7745C25.5644 34.4992 25.0949 34.3108 23.8251 33.8223L16.3103 30.932C15.9241 30.7835 15.6693 30.4125 15.6693 29.9987C15.6693 29.5849 15.9241 29.2139 16.3103 29.0654L23.8251 26.1751C25.0949 25.6866 25.5644 25.4982 25.9516 25.2229C26.316 24.9638 26.6344 24.6454 26.8935 24.281C27.1688 23.8938 27.3572 23.4244 27.8456 22.1545L30.7359 14.6397C30.8845 14.2535 31.2555 13.9987 31.6693 13.9987ZM31.6693 17.7844L29.7123 22.8724C29.6964 22.9139 29.6807 22.9548 29.6651 22.9951C29.2406 24.0996 28.963 24.8219 28.5235 25.44C28.1348 25.9866 27.6572 26.4642 27.1106 26.8529C26.4924 27.2924 25.7702 27.57 24.6657 27.9946C24.6253 28.0101 24.5844 28.0258 24.543 28.0417L19.4549 29.9987L24.543 31.9557C24.5845 31.9716 24.6254 31.9873 24.6657 32.0028C25.7702 32.4274 26.4924 32.705 27.1106 33.1445C27.6572 33.5332 28.1348 34.0108 28.5235 34.5574C28.963 35.1755 29.2406 35.8978 29.6651 37.0023C29.6807 37.0426 29.6964 37.0835 29.7123 37.125L31.6693 42.213L33.6262 37.1249C33.6422 37.0835 33.6579 37.0426 33.6734 37.0023C34.0979 35.8978 34.3755 35.1755 34.8151 34.5574C35.2038 34.0108 35.6813 33.5332 36.228 33.1445C36.8461 32.705 37.5683 32.4274 38.6728 32.0028C38.7132 31.9873 38.7541 31.9716 38.7955 31.9556L43.8836 29.9987L38.7955 28.0417C38.7541 28.0258 38.7132 28.0101 38.6729 27.9946C37.5683 27.57 36.8461 27.2924 36.228 26.8529C35.6813 26.4642 35.2038 25.9866 34.8151 25.44C34.3755 24.8219 34.0979 24.0997 33.6734 22.9952C33.6579 22.9548 33.6422 22.9139 33.6262 22.8724L31.6693 17.7844ZM17.5026 37.332C18.0549 37.332 18.5026 37.7797 18.5026 38.332V41.4987H21.6693C22.2216 41.4987 22.6693 41.9464 22.6693 42.4987C22.6693 43.051 22.2216 43.4987 21.6693 43.4987H18.5026V46.6654C18.5026 47.2177 18.0549 47.6654 17.5026 47.6654C16.9503 47.6654 16.5026 47.2177 16.5026 46.6654V43.4987H13.3359C12.7837 43.4987 12.3359 43.051 12.3359 42.4987C12.3359 41.9464 12.7837 41.4987 13.3359 41.4987H16.5026V38.332C16.5026 37.7797 16.9503 37.332 17.5026 37.332Z" fill="white"/>
</svg>
