<svg width="30" height="30" viewBox="0 0 30 30" fill="none" xmlns="http://www.w3.org/2000/svg">
<rect width="30" height="30" rx="15" fill="#9083F7"/>
<path fill-rule="evenodd" clip-rule="evenodd" d="M17.3704 12.621C17.6047 12.8554 17.6047 13.2353 17.3704 13.4696L12.5243 18.3157C12.2899 18.55 11.9101 18.55 11.6757 18.3157C11.4414 18.0814 11.4414 17.7015 11.6757 17.4672L16.5219 12.621C16.7562 12.3867 17.1361 12.3867 17.3704 12.621Z" fill="white"/>
<path fill-rule="evenodd" clip-rule="evenodd" d="M21.6744 8.82932C21.7689 8.52241 21.4814 8.23494 21.1745 8.32938L5.36537 13.1937C5.02047 13.2998 4.98135 13.7724 5.30412 13.9338L12.0044 17.2839C12.314 17.4387 12.5651 17.6898 12.7199 17.9995L16.07 24.6997C16.2314 25.0225 16.704 24.9833 16.8101 24.6384L21.6744 8.82932ZM20.8216 7.18244C22.0492 6.80471 23.1991 7.95458 22.8214 9.18222L17.957 24.9913C17.5325 26.371 15.6422 26.5274 14.9967 25.2363L11.6466 18.5361C11.6079 18.4587 11.5451 18.3959 11.4677 18.3572L4.76746 15.0071C3.4764 14.3616 3.63284 12.4713 5.01247 12.0468L20.8216 7.18244Z" fill="white"/>
</svg>
