<svg width="30" height="30" viewBox="0 0 30 30" fill="none" xmlns="http://www.w3.org/2000/svg">
<rect width="30" height="30" rx="15" fill="#9083F7"/>
<g clip-path="url(#clip0_145_2470)">
<path d="M12.2086 17.5805C12.4856 17.1015 13.0512 16.8978 13.5639 17.0354C13.5843 16.8847 13.6221 16.735 13.7027 16.5956C14.0321 16.026 14.7732 15.828 15.3428 16.1575L19.0665 18.311L18.9387 17.8327C18.7687 17.1962 19.1537 16.5305 19.7901 16.3605C20.4266 16.1905 21.0923 16.5755 21.2623 17.2119L22.2527 20.9194C22.4231 21.5614 22.4169 22.309 22.0327 22.9734L21.1061 24.5754C20.3337 25.9109 18.6145 26.3702 17.2791 25.5978L13.1224 23.1938C12.5527 22.8643 12.3548 22.1233 12.6842 21.5536C12.7546 21.4318 12.8469 21.3317 12.9495 21.2448L12.5382 21.0069C11.9685 20.6774 11.7705 19.9364 12.1 19.3667C12.1806 19.2274 12.2915 19.12 12.412 19.0271C12.037 18.6514 11.9315 18.0595 12.2086 17.5805ZM12.9013 17.9812C12.7879 18.1774 12.8512 18.4144 13.0474 18.5279L16.1649 20.3309C16.3562 20.4415 16.4216 20.6863 16.3109 20.8776L-nan -nanL16.3109 20.8776C16.2003 21.0689 15.9555 21.1343 15.7642 21.0237L13.3395 19.6213C13.1433 19.5079 12.9062 19.5712 12.7928 19.7674C12.6793 19.9636 12.7426 20.2007 12.9388 20.3141L15.3636 21.7165C15.5549 21.8271 15.6203 22.0719 15.5096 22.2632L-nan -nanL15.5096 22.2632C15.399 22.4545 15.1542 22.5199 14.9629 22.4092L13.9237 21.8082C13.7275 21.6948 13.4905 21.7581 13.377 21.9543C13.2635 22.1505 13.3269 22.3875 13.5231 22.501L17.6797 24.905C18.6404 25.4606 19.8577 25.1354 20.4133 24.1747L21.3399 22.5727C21.595 22.1316 21.599 21.6283 21.4668 21.1293L20.4935 17.4173C20.4353 17.1995 20.2134 17.0711 19.9955 17.1293C19.7777 17.1875 19.6494 17.4094 19.7076 17.6273L20.0926 19.0345L-nan -nanL20.0926 19.0345C20.1853 19.3813 19.8124 19.6669 19.5017 19.4872L14.9422 16.8502C14.746 16.7368 14.5089 16.8001 14.3954 16.9963C14.282 17.1925 14.3453 17.4295 14.5415 17.543L16.9662 18.9453C17.1575 19.056 17.2229 19.3008 17.1123 19.4921L-nan -nanL17.1123 19.4921C17.0016 19.6834 16.7569 19.7488 16.5656 19.6381L13.4481 17.8351C13.2519 17.7217 13.0148 17.785 12.9013 17.9812Z" fill="white"/>
<path fill-rule="evenodd" clip-rule="evenodd" d="M22.2497 20.9193L21.2592 17.2118C21.0892 16.5754 20.4235 16.1904 19.7871 16.3604C19.1506 16.5304 18.7656 17.1961 18.9356 17.8326L19.0634 18.3109L15.3398 16.1573C14.7701 15.8279 14.029 16.0259 13.6996 16.5955C13.6402 16.6982 13.6041 16.8064 13.581 16.9165C13.5728 16.9559 13.5662 16.9956 13.5608 17.0353C13.5219 17.0248 13.4826 17.0163 13.4432 17.0098C12.9639 16.9302 12.4615 17.1378 12.2055 17.5804C11.9495 18.023 12.0201 18.562 12.3281 18.9378C12.3535 18.9687 12.3804 18.9985 12.4089 19.027C12.3771 19.0515 12.3461 19.077 12.316 19.1038C12.2321 19.1787 12.1563 19.264 12.0969 19.3666C11.7675 19.9363 11.9654 20.6773 12.5351 21.0068L12.9464 21.2447C12.9145 21.2717 12.8836 21.3 12.854 21.3299C12.7885 21.396 12.7297 21.4696 12.6811 21.5535C12.3517 22.1232 12.5497 22.8642 13.1193 23.1937L17.276 25.5977C18.6115 26.3701 20.3307 25.9108 21.103 24.5753L22.0296 22.9733C22.4138 22.3089 22.42 21.5613 22.2497 20.9193ZM12.747 21.268C12.6839 21.3345 12.6261 21.409 12.5773 21.4934C12.2146 22.1205 12.4322 22.9349 13.0592 23.2976L17.2159 25.7016C18.6088 26.5071 20.4014 26.0282 21.2069 24.6354L22.1335 23.0333C22.5378 22.3342 22.5417 21.552 22.3656 20.8885L21.3752 17.1808C21.188 16.4804 20.4565 16.0573 19.7561 16.2445C19.0556 16.4316 18.6326 17.1631 18.8197 17.8635L18.8727 18.062L15.3998 16.0535C14.7728 15.6908 13.9583 15.9084 13.5957 16.5354C13.5286 16.6515 13.4886 16.7723 13.4636 16.8916C12.9383 16.8042 12.3847 17.0309 12.1016 17.5203C11.8185 18.0098 11.8981 18.6027 12.2359 19.0145C12.145 19.0956 12.0602 19.1905 11.993 19.3066C11.6304 19.9336 11.848 20.748 12.475 21.1107L12.747 21.268ZM21.3477 21.16C21.4749 21.6401 21.4669 22.1079 21.2329 22.5125L20.3064 24.1146C19.784 25.0179 18.64 25.3235 17.7367 24.801L13.5801 22.397C13.4412 22.3167 13.3975 22.1531 13.4778 22.0143C13.5581 21.8754 13.7217 21.8317 13.8606 21.912L14.8997 22.513C15.1484 22.6568 15.4666 22.5718 15.6104 22.3232C15.7542 22.0745 15.6692 21.7563 15.4206 21.6125L12.9958 20.2101C12.857 20.1298 12.8133 19.9662 12.8936 19.8274C12.9739 19.6885 13.1375 19.6448 13.2763 19.7251L15.7011 21.1275C15.9497 21.2713 16.2679 21.1863 16.4117 20.9376C16.5556 20.6889 16.4706 20.3707 16.2219 20.2269L13.1044 18.4239C12.9656 18.3436 12.9218 18.18 13.0021 18.0411C13.0824 17.9023 13.2461 17.8586 13.3849 17.9389L16.5024 19.7419C16.7511 19.8857 17.0693 19.8007 17.2131 19.552C17.3569 19.3034 17.2719 18.9852 17.0232 18.8414L14.5985 17.439C14.4597 17.3587 14.416 17.1951 14.4962 17.0563C14.5765 16.9174 14.7402 16.8737 14.879 16.954L19.4386 19.591C19.8418 19.8242 20.3257 19.4535 20.2055 19.0034L20.0896 19.0344C20.1822 19.3812 19.8093 19.6668 19.4986 19.4871L14.9391 16.8501C14.7429 16.7367 14.5058 16.8 14.3924 16.9962C14.2789 17.1924 14.3422 17.4294 14.5384 17.5429L16.9631 18.9452C17.1545 19.0559 17.2198 19.3007 17.1092 19.492C16.9986 19.6833 16.7538 19.7487 16.5625 19.638L13.445 17.835C13.2488 17.7215 13.0117 17.7849 12.8983 17.9811C12.7848 18.1773 12.8481 18.4143 13.0443 18.5278L16.1618 20.3308C16.3531 20.4414 16.4185 20.6862 16.3079 20.8775C16.1972 21.0688 15.9525 21.1342 15.7611 21.0236L13.3364 19.6212C13.1402 19.5078 12.9032 19.5711 12.7897 19.7673C12.6762 19.9635 12.7396 20.2005 12.9358 20.314L15.3605 21.7164C15.5518 21.827 15.6172 22.0718 15.5065 22.2631C15.3959 22.4544 15.1511 22.5198 14.9598 22.4091L13.9206 21.8081C13.7244 21.6947 13.4874 21.758 13.3739 21.9542C13.2605 22.1504 13.3238 22.3874 13.52 22.5009L17.6766 24.9049C18.6373 25.4605 19.8547 25.1353 20.4103 24.1746L21.3368 22.5726C21.5919 22.1315 21.5959 21.6282 21.4637 21.1292L20.4904 17.4172C20.4322 17.1994 20.2103 17.071 19.9925 17.1292C19.7746 17.1874 19.6463 17.4093 19.7045 17.6272L20.0896 19.0344L20.2055 19.0034L19.8204 17.5962C19.8204 17.5961 19.8204 17.5963 19.8204 17.5962C19.7795 17.4425 19.8697 17.2862 20.0234 17.2452C20.1772 17.2041 20.3332 17.2943 20.3744 17.448C20.3744 17.4481 20.3744 17.4479 20.3744 17.448L21.3477 21.16Z" fill="white"/>
<path fill-rule="evenodd" clip-rule="evenodd" d="M17.3849 5.86427C19.243 6.34889 20.9091 7.38882 22.1606 8.84519C23.4122 10.3016 24.1898 12.1051 24.3894 14.0149C24.5891 15.9248 24.2014 17.8502 23.2782 19.5339C23.1188 19.8245 22.7541 19.9309 22.4636 19.7715C22.173 19.6122 22.0666 19.2475 22.226 18.9569C23.0318 17.4873 23.3702 15.8068 23.1959 14.1397C23.0217 12.4727 22.343 10.8985 21.2505 9.62731C20.1581 8.35612 18.7039 7.44843 17.082 7.02542C15.4602 6.60241 13.7478 6.68422 12.1737 7.25992C10.5996 7.83563 9.23849 8.87782 8.27221 10.2474C7.30594 11.6169 6.78043 13.2487 6.76587 14.9247C6.7513 16.6008 7.24836 18.2414 8.19069 19.6275C9.13302 21.0136 10.4758 22.0793 12.0397 22.6823C12.3489 22.8015 12.5029 23.1488 12.3836 23.458C12.2644 23.7672 11.9172 23.9212 11.608 23.802C9.81625 23.1112 8.2779 21.8902 7.1983 20.3022C6.1187 18.7141 5.54922 16.8345 5.56591 14.9143C5.5826 12.9941 6.18466 11.1246 7.2917 9.55558C8.39874 7.98652 9.95808 6.7925 11.7615 6.13293C13.565 5.47336 15.5267 5.37964 17.3849 5.86427Z" fill="white"/>
<path d="M18.6031 13.1984C18.6031 14.1926 18.0659 14.9984 17.4031 14.9984C16.7404 14.9984 16.2031 14.1926 16.2031 13.1984C16.2031 12.2043 16.7404 11.3984 17.4031 11.3984C18.0659 11.3984 18.6031 12.2043 18.6031 13.1984Z" fill="white"/>
<path d="M13.7984 13.1984C13.7984 14.1926 13.2612 14.9984 12.5984 14.9984C11.9357 14.9984 11.3984 14.1926 11.3984 13.1984C11.3984 12.2043 11.9357 11.3984 12.5984 11.3984C13.2612 11.3984 13.7984 12.2043 13.7984 13.1984Z" fill="white"/>
</g>
<defs>
<clipPath id="clip0_145_2470">
<rect width="24" height="24" fill="white" transform="translate(3 3)"/>
</clipPath>
</defs>
</svg>
