<svg width="60" height="60" viewBox="0 0 60 60" fill="none" xmlns="http://www.w3.org/2000/svg">
<rect width="60" height="60" rx="30" fill="#9083F7"/>
<path fill-rule="evenodd" clip-rule="evenodd" d="M22.5 40.0013C22.5 39.5411 22.8731 39.168 23.3333 39.168H35C35.4602 39.168 35.8333 39.5411 35.8333 40.0013V41.668C35.8333 45.0055 32.7234 47.5013 29.1667 47.5013C25.6099 47.5013 22.5 45.0055 22.5 41.668V40.0013ZM24.1667 40.8346V41.668C24.1667 43.8533 26.2801 45.8346 29.1667 45.8346C32.0532 45.8346 34.1667 43.8533 34.1667 41.668V40.8346H24.1667Z" fill="white"/>
<path fill-rule="evenodd" clip-rule="evenodd" d="M38.3359 14.1667C35.1143 14.1667 32.5026 16.7783 32.5026 20C32.5026 23.2217 35.1143 25.8333 38.3359 25.8333C41.5576 25.8333 44.1693 23.2217 44.1693 20C44.1693 16.7783 41.5576 14.1667 38.3359 14.1667ZM30.8359 20C30.8359 15.8579 34.1938 12.5 38.3359 12.5C42.4781 12.5 45.8359 15.8579 45.8359 20C45.8359 24.1421 42.4781 27.5 38.3359 27.5C34.1938 27.5 30.8359 24.1421 30.8359 20Z" fill="white"/>
<path fill-rule="evenodd" clip-rule="evenodd" d="M29.1641 15.8346C22.7848 15.8346 17.6016 21.0514 17.6016 27.5013V34.1484C17.6016 34.6847 17.3904 35.2002 17.0124 35.5814L16.1079 36.4935C15.9312 36.6718 15.8307 36.9149 15.8307 37.1695V38.2156C15.8307 38.7482 16.257 39.168 16.7682 39.168H41.5599C42.0711 39.168 42.4974 38.7482 42.4974 38.2156V37.1695C42.4974 36.915 42.397 36.672 42.2203 36.4936L41.3158 35.5815C40.9377 35.2002 40.7266 34.6847 40.7266 34.1484V27.5013C40.7266 27.2066 40.7157 26.9152 40.6941 26.6288C40.6593 26.1699 41.0032 25.7697 41.4621 25.7349C41.921 25.7002 42.3212 26.0441 42.356 26.503C42.3809 26.8325 42.3932 27.1659 42.3932 27.5013V34.1484C42.3932 34.2471 42.4321 34.3402 42.4992 34.4079L43.4038 35.32C43.891 35.8117 44.1641 36.477 44.1641 37.1695V38.2156C44.1641 39.6555 43.0047 40.8346 41.5599 40.8346H16.7682C15.3234 40.8346 14.1641 39.6555 14.1641 38.2156V37.1695C14.1641 36.4771 14.4368 35.8119 14.9242 35.3202L15.8289 34.408C15.896 34.3403 15.9349 34.2471 15.9349 34.1484V27.5013C15.9349 20.1441 21.8512 14.168 29.1641 14.168C30.5092 14.168 31.8089 14.3706 33.0339 14.7477C33.4737 14.8831 33.7205 15.3495 33.5851 15.7893C33.4497 16.2292 32.9833 16.476 32.5435 16.3406C31.4755 16.0118 30.341 15.8346 29.1641 15.8346Z" fill="white"/>
<ellipse cx="29.1693" cy="13.3333" rx="3.33333" ry="3.33333" fill="white"/>
</svg>
