<svg width="20" height="20" viewBox="0 0 20 20" fill="none" xmlns="http://www.w3.org/2000/svg">
<path fill-rule="evenodd" clip-rule="evenodd" d="M11.6719 7.71094C12.0171 7.71094 12.2969 7.99076 12.2969 8.33594L12.2969 14.1693C12.2969 14.5144 12.0171 14.7943 11.6719 14.7943C11.3267 14.7943 11.0469 14.5144 11.0469 14.1693L11.0469 8.33594C11.0469 7.99076 11.3267 7.71094 11.6719 7.71094Z" fill="#333333"/>
<path fill-rule="evenodd" clip-rule="evenodd" d="M8.32813 7.71094C8.6733 7.71094 8.95313 7.99076 8.95313 8.33594L8.95313 14.1693C8.95313 14.5144 8.6733 14.7943 8.32813 14.7943C7.98295 14.7943 7.70312 14.5144 7.70312 14.1693L7.70313 8.33594C7.70313 7.99076 7.98295 7.71094 8.32813 7.71094Z" fill="#333333"/>
<path fill-rule="evenodd" clip-rule="evenodd" d="M4.375 5C4.375 4.65482 4.65482 4.375 5 4.375H15C15.3452 4.375 15.625 4.65482 15.625 5V16.6667C15.625 17.4721 14.9721 18.125 14.1667 18.125H5.83333C5.02792 18.125 4.375 17.4721 4.375 16.6667V5ZM5.625 5.625V16.6667C5.625 16.7817 5.71827 16.875 5.83333 16.875H14.1667C14.2817 16.875 14.375 16.7817 14.375 16.6667V5.625H5.625Z" fill="#333333"/>
<path fill-rule="evenodd" clip-rule="evenodd" d="M2.70312 5C2.70312 4.65482 2.98295 4.375 3.32812 4.375H16.6615C17.0066 4.375 17.2865 4.65482 17.2865 5C17.2865 5.34518 17.0066 5.625 16.6615 5.625H3.32812C2.98295 5.625 2.70312 5.34518 2.70312 5Z" fill="#333333"/>
<path fill-rule="evenodd" clip-rule="evenodd" d="M6.04688 3.33333C6.04688 2.52792 6.69979 1.875 7.50521 1.875H12.5052C13.3106 1.875 13.9635 2.52792 13.9635 3.33333V5C13.9635 5.34518 13.6837 5.625 13.3385 5.625H6.67188C6.3267 5.625 6.04688 5.34518 6.04688 5V3.33333ZM7.50521 3.125C7.39015 3.125 7.29688 3.21827 7.29688 3.33333V4.375H12.7135V3.33333C12.7135 3.21827 12.6203 3.125 12.5052 3.125H7.50521Z" fill="#333333"/>
</svg>
